<?xml version="1.0" encoding="utf-8"?>
<!-- Generator: Adobe Illustrator 18.0.0, SVG Export Plug-In . SVG Version: 6.00 Build 0)  -->
<!DOCTYPE svg PUBLIC "-//W3C//DTD SVG 1.1//EN" "http://www.w3.org/Graphics/SVG/1.1/DTD/svg11.dtd">
<svg version="1.1" id="loading" xmlns="http://www.w3.org/2000/svg" xmlns:xlink="http://www.w3.org/1999/xlink" x="0px" y="0px"
	 viewBox="0 0 40 40" enable-background="new 0 0 40 40" xml:space="preserve">
<g>
	<g>
		<polygon fill="#FFFFFF" points="35.6,26.2 35.2,27.1 35.2,27.1 		"/>
		<polygon fill="#FFFFFF" points="31.9,32.2 31.2,32.9 30.8,32.5 31.6,31.8 		"/>
		<polygon fill="#FFFFFF" points="26,36.2 25.1,36.5 24.7,35.6 25.7,35.3 		"/>
		<polygon fill="#FFFFFF" points="18.9,37.4 17.9,37.4 18,35.9 19,36.1 		"/>
		<polygon fill="#FFFFFF" points="11.8,35.7 10.9,35.2 11.8,33.5 12.7,34.1 		"/>
		<polygon fill="#FFFFFF" points="5.9,31.1 5.3,30.3 7.2,28.9 7.8,29.7 		"/>
		<polygon fill="#FFFFFF" points="2.4,24.5 2.1,23.5 4.9,22.9 5.1,23.9 		"/>
		<polygon fill="#FFFFFF" points="1.9,16.9 2,15.9 5.3,16.6 5.1,17.5 		"/>
		<polygon fill="#FFFFFF" points="4.5,9.6 5,8.8 8.1,11 7.5,11.8 		"/>
		<polygon fill="#FFFFFF" points="9.9,4 10.8,3.5 13,7.2 12.1,7.6 		"/>
		<polygon fill="#FFFFFF" points="17.3,1.1 18.3,0.9 18.8,5.6 17.8,5.7 		"/>
		<polygon fill="#FFFFFF" points="25.3,1.4 26.2,1.7 24.7,6.6 23.7,6.3 		"/>
		<polygon fill="#FFFFFF" points="32.5,5 33.3,5.6 29.6,9.9 28.8,9.2 		"/>
		<polygon fill="#FFFFFF" points="37.8,11.3 38.2,12.2 32.7,14.7 32.3,13.8 		"/>
		<polygon fill="#FFFFFF" points="40,19.2 40.1,20.2 33.5,20.3 33.5,19.3 		"/>
	</g>
</g>
</svg>
